<svg xmlns="http://www.w3.org/2000/svg" version="1.1" xmlns:xlink="http://www.w3.org/1999/xlink" xmlns:svgjs="http://svgjs.dev/svgjs" width="1500" height="1500" viewBox="0 0 1500 1500"><rect width="1500" height="1500" fill="#eae5df"></rect><g transform="matrix(0.6666666666666666,0,0,0.6666666666666666,250.59094233163285,422.931713900135)"><svg viewBox="0 0 377 247" data-background-color="#eae5df" preserveAspectRatio="xMidYMid meet" height="982" width="1500" xmlns="http://www.w3.org/2000/svg" xmlns:xlink="http://www.w3.org/1999/xlink"><g id="tight-bounds" transform="matrix(1,0,0,1,-0.222785259025585,-0.09999999999999432)"><svg viewBox="0 0 377.44557051805117 247.2" height="247.2" width="377.44557051805117"><g><svg viewBox="0 0 395.52 259.0374656292968" height="247.2" width="377.44557051805117"><g transform="matrix(1,0,0,1,0,155.80765514721028)"><svg viewBox="0 0 395.52 103.22981048208646" height="103.22981048208646" width="395.52"><g id="textblocktransform"><svg viewBox="0 0 395.52 103.22981048208646" height="103.22981048208646" width="395.52" id="textblock"><g><svg viewBox="0 0 395.52 55.67722708351032" height="55.67722708351032" width="395.52"><g transform="matrix(1,0,0,1,0,0)"><svg width="395.52" viewBox="5.37 -39.89 287.35 40.45" height="55.67722708351032" data-palette-color="#be959f"><path d="M23.68-5.2L23.68-5.2 20.21-9.55Q18.95-11.11 18.65-11.4L18.65-11.4Q15.36-15.04 14.16-16.5L14.16-16.5Q14.16-16.5 11.52-19.68L11.52-19.68 11.52-20.48 26.15-37.94 31.76-37.94 16.43-20.19Q23.02-12.67 24-11.47L24-11.47 27-7.91 32.03-2.1 27.93 0.56Q25.85-2.42 23.68-5.2ZM9.59 0L5.37 0 5.37-37.94 9.59-37.94 9.59 0ZM58.96-2.81L59.23 0.22Q58.42 0.49 57.22 0.49 56.03 0.49 55.26 0.22 54.49-0.05 53.93-0.54L53.93-0.54Q52.83-1.46 52.51-3L52.51-3Q51.19-0.98 47.78 0.07L47.78 0.07Q44.7 1.03 41.57-0.05L41.57-0.05Q38.21-1.17 36.72-4.17L36.72-4.17Q35.96-5.69 35.96-7.51 35.96-9.33 36.67-10.58 37.38-11.84 38.55-12.65L38.55-12.65Q40.74-14.18 44.43-14.5L44.43-14.5Q47.39-14.79 52.07-14.92L52.07-14.92 52.07-19.31Q52.07-22.41 51.72-23.19 51.36-23.97 50.88-24.37L50.88-24.37Q50.05-25 47.51-25L47.51-25 46.58-24.98Q42.77-24.78 39.18-23.73L39.18-23.73 38.5-27.34Q42.77-28.59 46.9-28.59L46.9-28.59Q52.78-28.59 54.61-26.37L54.61-26.37Q55.71-25.02 55.93-23.07 56.15-21.12 56.17-19.46L56.17-19.46 56.17-5.52Q56.17-3.44 56.55-3.04 56.93-2.64 57.43-2.64 57.93-2.64 58.96-2.81L58.96-2.81ZM52.07-5.71L52.07-8.94Q52.07-10.67 52.17-12.13L52.17-12.13Q43.6-12.13 41.38-10.5L41.38-10.5Q40.13-9.62 40.13-7.76L40.13-7.76Q40.13-5.64 41.57-4.3L41.57-4.3Q42.97-3 45.21-3L45.21-3Q49.53-2.88 52.07-5.71L52.07-5.71ZM71.75 0L67.55 0Q67.55 0 67.48-34.4L67.48-34.4Q67.43-38.79 67.4-39.55L67.4-39.55 71.7-39.89 71.75-16.94 71.75 0ZM81.17-5.71L81.17-5.71 74.14-14.23Q73.29-15.23 72.99-15.65L72.99-15.65 84.22-28.25 89.64-28.25 77.85-15.65Q77.97-15.48 78.34-15.04L78.34-15.04Q81.1-11.77 81.78-10.89L81.78-10.89 89.81-2.2 85.83 0.49Q83.71-2.61 81.17-5.71ZM110.64-4.3L111.37-0.85Q107.88 0.49 104.44 0.49L104.44 0.49Q101.04 0.44 99.48-1L99.48-1Q97.72-2.61 97.72-6.35L97.72-6.35Q97.72-6.59 97.72-6.84 97.72-7.08 97.75-7.35L97.75-7.35 97.87-24.8 93.28-24.8 93.4-28.25 98.04-28.25Q98.04-32.32 97.75-34.08L97.75-34.08 101.95-34.77 102.12-28.25 109.83-28.25 109.83-24.8 102.04-24.8 101.95-7.62Q101.85-5.15 102.39-4.37 102.92-3.59 103.59-3.38 104.26-3.17 105.77-3.17 107.27-3.17 110.64-4.3L110.64-4.3ZM140.03-23.61L140.03-23.61 140.03-11.4Q140.03-1.51 140.35 0L140.35 0 136.54 0 136.05-3.96Q133.1-0.85 129.19 0.15L129.19 0.15Q127.82 0.49 126 0.46 124.18 0.44 122.45-0.2 120.72-0.83 119.52-2.03L119.52-2.03Q117.03-4.52 117.13-8.98L117.13-8.98 117.13-28.25 121.28-28.59 121.28-10.45Q121.28-6.59 122.4-4.93L122.4-4.93Q123.57-3.22 126.31-3.2 129.04-3.17 131.34-4.21 133.63-5.25 136.05-7.28L136.05-7.28 135.95-9.06Q135.88-10.23 135.88-12.38L135.88-12.38 135.88-28.25 140.05-28.59Q140.03-25.93 140.03-23.61ZM166.54-27.51L165.71-23.9Q162.85-24.9 159.46-24.9L159.46-24.9Q156.34-24.9 155.11-22.66L155.11-22.66Q154.75-22 154.65-21.01 154.55-20.02 154.93-19.15 155.31-18.29 156.04-17.63L156.04-17.63Q157.19-16.58 159.05-15.84 160.9-15.11 161.84-14.7 162.78-14.28 163.63-13.77 164.49-13.26 165.23-12.6 165.98-11.94 166.52-11.11L166.52-11.11Q167.66-9.35 167.6-7.08 167.54-4.81 166.75-3.42 165.95-2.03 164.61-1.17L164.61-1.17Q162.1 0.49 157.63 0.49L157.63 0.49Q153.19 0.49 148.96-1.12L148.96-1.12 149.69-4.81Q153.58-3.27 157.73-3.17L157.73-3.17Q161.68-3.03 162.83-5.22L162.83-5.22Q163.71-6.88 162.98-8.54L162.98-8.54Q162.29-10.03 160.24-11.08L160.24-11.08Q159.26-11.6 158.03-12.1 156.8-12.6 155.4-13.28 153.99-13.96 152.84-14.97L152.84-14.97Q150.28-17.24 150.28-20.85L150.28-20.85 150.28-21.22Q150.28-23.07 151.18-24.5 152.09-25.93 153.38-26.81L153.38-26.81Q155.87-28.49 159.53-28.59L159.53-28.59Q163.22-28.59 166.54-27.51L166.54-27.51ZM177.13-33.74L177.13-39.55 181.28-39.55 181.28-33.74 177.13-33.74ZM177.13 0L177.13-28.25 181.28-28.25 181.28 0 177.13 0ZM213.19-2.81L213.46 0.22Q212.65 0.49 211.46 0.49 210.26 0.49 209.49 0.22 208.72-0.05 208.16-0.54L208.16-0.54Q207.06-1.46 206.75-3L206.75-3Q205.43-0.98 202.01 0.07L202.01 0.07Q198.93 1.03 195.81-0.05L195.81-0.05Q192.44-1.17 190.95-4.17L190.95-4.17Q190.19-5.69 190.19-7.51 190.19-9.33 190.9-10.58 191.61-11.84 192.78-12.65L192.78-12.65Q194.98-14.18 198.66-14.5L198.66-14.5Q201.62-14.79 206.31-14.92L206.31-14.92 206.31-19.31Q206.31-22.41 205.95-23.19 205.6-23.97 205.11-24.37L205.11-24.37Q204.28-25 201.74-25L201.74-25 200.81-24.98Q197-24.78 193.42-23.73L193.42-23.73 192.73-27.34Q197-28.59 201.13-28.59L201.13-28.59Q207.01-28.59 208.84-26.37L208.84-26.37Q209.94-25.02 210.16-23.07 210.38-21.12 210.41-19.46L210.41-19.46 210.41-5.52Q210.41-3.44 210.79-3.04 211.16-2.64 211.66-2.64 212.17-2.64 213.19-2.81L213.19-2.81ZM206.31-5.71L206.31-8.94Q206.31-10.67 206.4-12.13L206.4-12.13Q197.83-12.13 195.61-10.5L195.61-10.5Q194.37-9.62 194.37-7.76L194.37-7.76Q194.37-5.64 195.81-4.3L195.81-4.3Q197.2-3 199.45-3L199.45-3Q203.77-2.88 206.31-5.71L206.31-5.71ZM227.23-20.17L225.81-18.12Q225.91-16.26 225.91-13.43L225.91-13.43 225.91 0 221.78 0Q221.78-25.9 221.49-28.25L221.49-28.25 225.54-28.59 225.54-21.73Q228.79-28.59 234.26-28.59L234.26-28.59Q236.14-28.59 237.36-28.3L237.36-28.3 236.45-23.95Q235.28-24.54 233.83-24.55 232.38-24.56 231.18-23.9 229.98-23.24 229-22.27 228.01-21.29 227.23-20.17L227.23-20.17ZM246.8 0L242.6 0Q242.6 0 242.53-34.4L242.53-34.4Q242.48-38.79 242.46-39.55L242.46-39.55 246.75-39.89 246.8-16.94 246.8 0ZM256.23-5.71L256.23-5.71 249.2-14.23Q248.34-15.23 248.05-15.65L248.05-15.65 259.28-28.25 264.7-28.25 252.91-15.65Q253.03-15.48 253.4-15.04L253.4-15.04Q256.15-11.77 256.84-10.89L256.84-10.89 264.87-2.2 260.89 0.49Q258.77-2.61 256.23-5.71ZM292.46-2.81L292.72 0.22Q291.92 0.49 290.72 0.49 289.53 0.49 288.76 0.22 287.99-0.05 287.43-0.54L287.43-0.54Q286.33-1.46 286.01-3L286.01-3Q284.69-0.98 281.27 0.07L281.27 0.07Q278.2 1.03 275.07-0.05L275.07-0.05Q271.7-1.17 270.21-4.17L270.21-4.17Q269.46-5.69 269.46-7.51 269.46-9.33 270.17-10.58 270.87-11.84 272.05-12.65L272.05-12.65Q274.24-14.18 277.93-14.5L277.93-14.5Q280.88-14.79 285.57-14.92L285.57-14.92 285.57-19.31Q285.57-22.41 285.22-23.19 284.86-23.97 284.37-24.37L284.37-24.37Q283.54-25 281.01-25L281.01-25 280.08-24.98Q276.27-24.78 272.68-23.73L272.68-23.73 272-27.34Q276.27-28.59 280.39-28.59L280.39-28.59Q286.28-28.59 288.11-26.37L288.11-26.37Q289.21-25.02 289.43-23.07 289.65-21.12 289.67-19.46L289.67-19.46 289.67-5.52Q289.67-3.44 290.05-3.04 290.43-2.64 290.93-2.64 291.43-2.64 292.46-2.81L292.46-2.81ZM285.57-5.71L285.57-8.94Q285.57-10.67 285.67-12.13L285.67-12.13Q277.1-12.13 274.88-10.5L274.88-10.5Q273.63-9.62 273.63-7.76L273.63-7.76Q273.63-5.64 275.07-4.3L275.07-4.3Q276.46-3 278.71-3L278.71-3Q283.03-2.88 285.57-5.71L285.57-5.71Z" opacity="1" transform="matrix(1,0,0,1,0,0)" fill="#be959f" class="wordmark-text-0" data-fill-palette-color="primary" id="text-0"></path></svg></g></svg></g><g transform="matrix(1,0,0,1,0,68.8212841444771)"><svg viewBox="0 0 395.52 34.40852633760937" height="34.40852633760937" width="395.52"><g transform="matrix(1,0,0,1,0,0)"><svg width="395.52" viewBox="2.39 -39.36 689.24 59.97" height="34.40852633760937" data-palette-color="#be959f"><path d="M53.91-3.86L53.91-3.86Q52.86-2.83 51.77-1.9 50.68-0.98 49.61-0.29 48.54 0.39 47.49 0.74 46.44 1.1 45.46 0.95L45.46 0.95Q44.46 0.81 43.92 0.13 43.38-0.54 43.12-1.6 42.85-2.66 42.75-4.03 42.65-5.4 42.55-6.96L42.55-6.96Q42.43-8.28 42.21-10.99L42.21-10.99Q42.11-12.13 41.98-13.71 41.85-15.28 41.69-17.35 41.53-19.41 41.31-21.98 41.09-24.56 40.84-27.76L40.84-27.76Q39.6-26.2 38.21-24.43 36.82-22.66 35.46-20.75 34.11-18.85 32.85-16.85 31.59-14.84 30.6-12.83 29.61-10.82 28.96-8.85 28.3-6.88 28.15-5.05L28.15-5.05 22.71 0.61Q22.75-0.24 22.66-1.09 22.56-1.93 22.41-2.59L22.41-2.59Q22.24-3.37 22-4.05L22-4.05Q20.87-6.91 19.57-9.67 18.26-12.43 16.87-15.14 15.48-17.85 14.05-20.51 12.62-23.17 11.25-25.85L11.25-25.85Q10.69-23.41 10.25-21.37 9.81-19.34 9.47-17.82L9.47-17.82Q9.08-16.06 8.79-14.65L8.79-14.65Q6.79-5.4 7.54-4.44L7.54-4.44Q7.74-4.22 8.18-4.06 8.62-3.91 9.25-3.91L9.25-3.91Q10.01-3.91 10.93-4.21 11.84-4.52 12.89-5.3L12.89-5.3Q11.33-3.83 10.03-2.59 8.74-1.34 7.62-0.49 6.49 0.37 5.53 0.73 4.57 1.1 3.66 0.81L3.66 0.81Q2.98 0.56 2.69-0.05 2.39-0.66 2.39-1.66L2.39-1.66Q2.39-3.05 2.87-5.14 3.34-7.23 3.91-9.96L3.91-9.96Q4.25-11.47 4.69-13.49 5.13-15.5 5.62-17.72 6.1-19.95 6.59-22.25 7.08-24.56 7.53-26.64 7.98-28.71 8.34-30.42 8.69-32.13 8.91-33.2L8.91-33.2Q9.01-33.5 9.64-34.18L9.64-34.18Q9.91-34.47 10.31-34.88 10.72-35.28 11.29-35.82 11.87-36.35 12.63-37.05 13.4-37.74 14.4-38.6L14.4-38.6Q14.21-37.7 14.36-36.67 14.5-35.64 14.75-34.77L14.75-34.77Q15.01-33.74 15.45-32.74L15.45-32.74Q15.8-31.96 16.59-30.4 17.38-28.83 18.42-26.84 19.46-24.85 20.65-22.6 21.85-20.34 22.96-18.14 24.07-15.94 25.02-13.96 25.98-11.99 26.54-10.6L26.54-10.6Q27.61-12.52 28.92-14.4 30.22-16.28 31.6-18.16 32.98-20.04 34.36-21.94 35.74-23.83 36.98-25.78 38.21-27.73 39.23-29.79 40.26-31.84 40.94-34.01L40.94-34.01Q41.58-34.77 42.46-35.62L42.46-35.62Q43.19-36.35 44.26-37.3 45.34-38.26 46.7-39.36L46.7-39.36Q46.44-38.6 46.34-37.62 46.24-36.65 46.19-35.77L46.19-35.77Q46.14-34.74 46.19-33.69L46.19-33.69Q46.22-33.01 46.33-31.54 46.44-30.08 46.58-28.14 46.73-26.2 46.94-23.9 47.14-21.61 47.35-19.26 47.56-16.92 47.78-14.66 48-12.4 48.19-10.53 48.39-8.67 48.56-7.32 48.73-5.98 48.85-5.44L48.85-5.44Q48.97-4.83 49.27-4.41 49.56-3.98 49.95-3.72 50.34-3.47 50.79-3.36 51.25-3.25 51.71-3.25L51.71-3.25Q52.37-3.25 52.94-3.43 53.52-3.61 53.91-3.86ZM272.53-3.76L272.53-3.76Q271.5-2.73 270.32-1.89 269.13-1.05 267.94-0.44 266.74 0.17 265.62 0.54 264.5 0.9 263.57 0.95L263.57 0.95Q263.06 1 262.25 0.94 261.44 0.88 260.7 0.51 259.96 0.15 259.42-0.63 258.88-1.42 258.88-2.86L258.88-2.86 258.88-5.76Q257.54-4.44 256.05-3.23 254.56-2.03 252.98-1.09 251.41-0.15 249.8 0.4 248.19 0.95 246.63 0.95L246.63 0.95Q244.62 0.95 243.11 0.06 241.6-0.83 240.57-2.25 239.55-3.66 239.03-5.42 238.52-7.18 238.52-8.91L238.52-8.91Q238.52-10.21 238.71-11.46 238.91-12.72 239.22-13.84 239.52-14.97 239.92-15.87 240.33-16.77 240.77-17.36L240.77-17.36Q241.57-18.46 242.82-19.48 244.06-20.51 245.54-21.41 247.02-22.31 248.68-23.05 250.34-23.78 251.98-24.32 253.63-24.85 255.19-25.15 256.76-25.44 258.08-25.44L258.08-25.44Q259.44-25.44 261.3-25.31 263.15-25.17 265.52-24.76L265.52-24.76Q265.42-21.95 265.35-19.8 265.28-17.65 265.23-15.95 265.18-14.26 265.16-12.87 265.13-11.47 265.13-10.16L265.13-10.16Q265.13-8.81 265.08-7.52 265.03-6.23 265.28-5.2 265.52-4.17 266.24-3.54 266.96-2.91 268.48-2.91L268.48-2.91Q269.38-2.91 270.4-3.14 271.43-3.37 272.53-3.76ZM258.93-21.24L258.93-21.24Q257.46-21.63 255.8-21.79 254.14-21.95 252.63-21.95L252.63-21.95Q251.8-21.95 251.06-21.9 250.31-21.85 249.7-21.78 249.09-21.7 248.63-21.59 248.16-21.48 247.92-21.34L247.92-21.34Q247.48-21.12 246.89-20.28 246.31-19.43 245.77-18.19 245.23-16.94 244.86-15.38 244.48-13.82 244.48-12.16L244.48-12.16Q244.48-10.57 244.94-8.97 245.4-7.37 246.3-6.1 247.19-4.83 248.49-4.04 249.8-3.25 251.48-3.25L251.48-3.25Q253.07-3.25 254.29-3.76 255.51-4.27 256.42-5.16 257.32-6.05 257.92-7.25 258.51-8.45 258.88-9.84L258.88-9.84Q258.88-10.86 258.88-12.02 258.88-13.18 258.88-14.58 258.88-15.97 258.89-17.61 258.91-19.26 258.93-21.24ZM465.13-19.75L465.13-19.75Q466.27-20.85 467.63-21.95 468.98-23.05 470.39-23.94 471.79-24.83 473.21-25.39 474.62-25.95 475.87-25.95L475.87-25.95Q476.72-25.95 477.54-25.77 478.36-25.59 479.15-25.35 479.94-25.12 480.73-24.94 481.51-24.76 482.31-24.76L482.31-24.76Q482.8-24.76 483.34-24.83 483.88-24.9 484.56-25.1L484.56-25.1Q483.02-23.93 481.87-23.07 480.73-22.22 479.72-21.67 478.72-21.12 477.74-20.86 476.75-20.61 475.53-20.65L475.53-20.65Q474.33-20.68 473.27-20.9 472.21-21.12 471.34-21.35 470.47-21.58 469.82-21.69 469.18-21.8 468.81-21.61L468.81-21.61Q467.93-21.17 467.27-20 466.61-18.82 466.16-17.21 465.71-15.6 465.43-13.72 465.15-11.84 465.02-9.96 464.88-8.08 464.88-6.38 464.88-4.69 464.98-3.44L464.98-3.44Q463.15-2.27 461.95-1.42 460.76-0.56 460.05 0L460.05 0Q459.22 0.66 458.78 1.15L458.78 1.15Q458.8-0.32 458.85-2.4 458.9-4.49 458.94-6.79 458.97-9.08 459-11.34 459.02-13.6 459.02-15.41L459.02-15.41Q459.02-16.55 458.96-17.74 458.9-18.92 458.56-19.9 458.22-20.87 457.5-21.48 456.78-22.09 455.46-22.09L455.46-22.09Q454.94-22.09 454.4-21.98 453.85-21.88 453.31-21.61L453.31-21.61Q454.33-22.29 455.36-23 456.38-23.71 457.42-24.28 458.46-24.85 459.5-25.21 460.54-25.56 461.61-25.56L461.61-25.56Q462.9-25.56 463.62-25 464.34-24.44 464.67-23.58 465-22.73 465.06-21.7 465.13-20.68 465.13-19.75ZM691.63-23L691.63-23Q691.63-21.92 691.35-20.53 691.07-19.14 690.33-17.46 689.58-15.77 688.29-13.79 686.99-11.82 684.94-9.59L684.94-9.59Q682.33-6.74 679.57-3.86 676.81-0.98 674.3 1.68 671.78 4.35 669.73 6.68 667.68 9.01 666.49 10.79L666.49 10.79Q665.29 12.57 664.64 13.94 664 15.31 663.73 16.31 663.46 17.31 663.46 18.02 663.46 18.73 663.58 19.19L663.58 19.19Q663.65 19.48 663.59 19.74 663.53 20 663.39 20.19 663.24 20.39 663.02 20.5 662.8 20.61 662.58 20.61L662.58 20.61Q662.29 20.61 661.99 20.32 661.7 20.04 661.53 19.41L661.53 19.41Q661.36 18.65 661.7 17.37 662.04 16.09 662.78 14.59 663.51 13.09 664.56 11.49 665.61 9.89 666.9 8.45L666.9 8.45Q668.49 6.69 670.51 4.41 672.54 2.12 674.69-0.39L674.69-0.39Q674.42-2.15 673.95-4.43 673.47-6.71 672.82-9.09 672.18-11.47 671.33-13.77 670.49-16.06 669.47-17.86 668.44-19.65 667.24-20.75 666.05-21.85 664.68-21.85L664.68-21.85Q664.12-21.85 663.53-21.64 662.95-21.44 662.34-21.09L662.34-21.09Q663.04-21.78 663.95-22.63 664.85-23.49 665.85-24.22 666.85-24.95 667.91-25.45 668.98-25.95 670-25.95L670-25.95Q670.71-25.95 671.33-25.59 671.96-25.22 672.49-24.39L672.49-24.39Q673.01-23.56 673.92-21.96 674.84-20.36 675.9-18.09 676.96-15.82 678-12.93 679.04-10.03 679.79-6.64L679.79-6.64Q681.11-8.35 682.23-10 683.36-11.65 684.2-13.13 685.04-14.62 685.52-15.91 685.99-17.19 685.99-18.19L685.99-18.19Q685.99-19.09 685.81-19.81 685.63-20.53 685.29-21.01 684.94-21.48 684.41-21.68 683.87-21.88 683.19-21.75L683.19-21.75Q683.75-22.44 684.49-23.27 685.24-24.1 686.08-24.82 686.92-25.54 687.84-26.01 688.75-26.49 689.68-26.49L689.68-26.49Q690.34-26.49 690.73-26.12 691.12-25.76 691.32-25.22 691.51-24.68 691.57-24.07 691.63-23.46 691.63-23Z" opacity="1" transform="matrix(1,0,0,1,0,0)" fill="#be959f" class="slogan-text-1" data-fill-palette-color="secondary" id="text-1"></path></svg></g></svg></g></svg></g></svg></g><g transform="matrix(1,0,0,1,147.68610821824254,0)"><svg viewBox="0 0 100.14778356351489 142.6635980862435" height="142.6635980862435" width="100.14778356351489"><g><svg xmlns="http://www.w3.org/2000/svg" xmlns:xlink="http://www.w3.org/1999/xlink" version="1.1" x="8" y="0" viewBox="23.9065168978505 2.2489999999999943 56.034781777232645 95.001" enable-background="new 0 0 100 100" xml:space="preserve" height="142.6635980862435" width="84.14778356351489" class="icon-icon-0" data-fill-palette-color="accent" id="icon-0"><path fill="#13472e" d="M74.562 34.907c2.938 0 5.348-2.386 5.379-5.32 0.031-2.966-2.355-5.405-5.364-5.437-0.409 0-3.904 0.351-7.962 0.998 3.275-1.445 6.101-2.839 6.941-3.324 2.262-1.307 3.041-4.195 1.737-6.46-1.306-2.264-4.198-3.041-6.46-1.737-0.59 0.339-2.01 1.379-3.758 2.762 1.416-2.016 2.372-3.471 2.4-3.52 0.729-1.237 0.935-2.685 0.574-4.076-0.357-1.391-1.234-2.559-2.472-3.289-0.83-0.49-1.771-0.748-2.729-0.748-1.896 0-3.672 1.014-4.635 2.646-0.186 0.31-1.402 2.997-2.732 6.376 0.322-3.191 0.492-5.909 0.492-6.799 0-2.613-2.115-4.73-4.728-4.73-2.614 0-4.73 2.118-4.73 4.73 0 0.771 0.245 2.917 0.655 5.549-1.2-2.637-2.159-4.545-2.192-4.604-0.952-1.699-2.753-2.755-4.7-2.755-0.914 0-1.82 0.237-2.621 0.687-1.253 0.703-2.158 1.85-2.549 3.231-0.391 1.383-0.219 2.834 0.482 4.086 0.317 0.569 1.61 2.381 3.329 4.588-2.108-1.503-3.856-2.665-4.513-3.047-2.257-1.312-5.153-0.551-6.467 1.704-1.314 2.257-0.552 5.154 1.705 6.468 0.759 0.442 3.223 1.507 6.195 2.638-3.596-0.38-6.453-0.544-6.556-0.545-2.928 0-5.339 2.381-5.376 5.309-0.019 1.437 0.523 2.795 1.527 3.824 1.003 1.028 2.346 1.604 3.781 1.621h0.06c0.335 0 2.598-0.21 5.531-0.609-2.185 1.005-3.912 1.864-4.536 2.222-2.265 1.299-3.052 4.189-1.752 6.456 1.299 2.266 4.19 3.052 6.456 1.751 0.722-0.414 2.688-1.87 4.985-3.729-2.071 2.849-3.593 5.148-3.629 5.21-1.51 2.551-0.665 5.856 1.882 7.366 0.831 0.494 1.778 0.757 2.74 0.757 1.891 0 3.665-1.009 4.629-2.634 0.179-0.301 1.346-2.855 2.645-6.109-0.269 2.757-0.409 5.023-0.411 5.82-0.003 2.152 1.441 3.955 3.41 4.531V76.3c-0.328-0.47-0.691-0.923-1.123-1.329-2.538-2.4-9.871-7.977-19.456-11.9l-2.994-1.227 1.983 2.557c2.458 3.168 4.877 7.481 7.012 11.289 2.131 3.801 3.814 6.803 5.149 8.065 1.504 1.421 3.446 2.235 5.329 2.235 0.001 0 0.001 0 0.001 0 1.606 0 3.051-0.594 4.069-1.67 0.011-0.012 0.018-0.029 0.029-0.041V97.25h1.729V77.895c1.006 0.979 2.377 1.529 3.905 1.529 1.882 0 3.824-0.814 5.328-2.234 1.336-1.263 3.02-4.267 5.148-8.067 2.135-3.808 4.555-8.12 7.014-11.287l1.983-2.558-2.995 1.228c-9.581 3.925-16.915 9.498-19.456 11.897-0.342 0.322-0.649 0.668-0.929 1.031V56.936c2.414-0.211 4.314-2.211 4.32-4.677 0.002-0.696-0.194-2.518-0.529-4.806 1.195 2.609 2.146 4.492 2.179 4.551 0.951 1.689 2.75 2.74 4.692 2.74 0.917 0 1.826-0.239 2.631-0.692 2.586-1.452 3.507-4.739 2.053-7.325-0.398-0.707-2.31-3.335-4.688-6.261 2.691 1.957 5.068 3.541 5.861 4.001 2.26 1.309 5.152 0.538 6.463-1.721 1.311-2.26 0.539-5.155-1.721-6.464-0.533-0.309-1.916-0.925-3.713-1.652 1.885 0.172 3.377 0.271 4.005 0.277H74.562L74.562 34.907zM49.937 83.133c-1.569 1.663-4.844 1.355-6.954-0.635-1.143-1.08-2.934-4.273-4.829-7.655-1.633-2.911-3.43-6.118-5.304-8.92 7.411 3.452 13.528 7.905 16.064 10.304 1.089 1.029 1.785 2.334 1.958 3.672C51.038 81.172 50.708 82.32 49.937 83.133zM53.109 73.332c0.175-1.338 0.869-2.643 1.961-3.673 2.537-2.397 8.654-6.851 16.062-10.304-1.874 2.803-3.671 6.009-5.301 8.92-1.897 3.383-3.688 6.576-4.83 7.656-2.112 1.994-5.388 2.295-6.954 0.635C53.277 75.754 52.943 74.605 53.109 73.332zM53.096 32.015c-0.009 0.003-0.018 0.004-0.023 0.008-0.162 0.063-0.331 0.115-0.506 0.15-0.18 0.036-0.367 0.057-0.559 0.057-0.294 0-0.57-0.056-0.838-0.137-0.049-0.015-0.098-0.028-0.145-0.045-0.26-0.095-0.508-0.219-0.729-0.382-0.011-0.008-0.021-0.019-0.032-0.026-0.468-0.357-0.83-0.852-1.016-1.427l0 0c-0.074-0.227-0.122-0.465-0.137-0.713l0 0c-0.004-0.062-0.019-0.12-0.019-0.183 0-0.334 0.065-0.651 0.171-0.947 0.006-0.021 0.011-0.041 0.019-0.061 0.115-0.299 0.273-0.576 0.473-0.82 0.3-0.37 0.68-0.671 1.126-0.857l0 0c0.173-0.073 0.354-0.13 0.542-0.167 0.188-0.039 0.383-0.059 0.582-0.059 0.174 0 0.34 0.022 0.508 0.051 0.157 0.03 0.31 0.074 0.459 0.126l0 0c0.48 0.169 0.898 0.46 1.226 0.837 0.108 0.126 0.209 0.261 0.297 0.404 0.004 0.007 0.007 0.016 0.012 0.023 0.081 0.135 0.15 0.275 0.209 0.422 0.021 0.051 0.032 0.105 0.05 0.157 0.037 0.111 0.074 0.222 0.098 0.339 0.033 0.179 0.055 0.362 0.055 0.551 0 0.392-0.079 0.764-0.219 1.105C54.4 31.146 53.82 31.721 53.096 32.015zM59.33 8.062c0.732-1.239 2.081-2.008 3.521-2.008 0.725 0 1.438 0.196 2.069 0.568 0.938 0.553 1.604 1.44 1.877 2.495 0.271 1.056 0.117 2.155-0.438 3.094-0.78 1.326-2.934 4.413-5.305 7.505-2.736 2.365-5.449 4.936-6.818 6.795-0.271-0.212-0.566-0.393-0.891-0.521 0.553-1.548 1.021-3.871 1.405-6.372C56.293 14.893 58.402 9.638 59.33 8.062zM36.723 12.542c-0.532-0.95-0.663-2.052-0.365-3.101 0.296-1.049 0.983-1.92 1.935-2.453 0.609-0.341 1.296-0.521 1.988-0.521 1.479 0 2.846 0.801 3.569 2.091 0.953 1.704 2.8 5.777 4.37 9.759 0.633 3.051 1.393 5.99 2.191 7.794-0.298 0.147-0.571 0.333-0.817 0.552-1.299-1.582-3.782-3.695-6.381-5.713C40.251 17.506 37.436 13.816 36.723 12.542zM29.277 34.438v0.648l-0.044-0.648c-1.089-0.012-2.108-0.449-2.868-1.229-0.762-0.782-1.173-1.812-1.159-2.903 0.027-2.221 1.857-4.028 4.131-4.028l0 0c2.283 0.03 7.974 0.62 12.745 1.423 2.446 0.761 4.736 1.342 6.312 1.478-0.003 0.061-0.019 0.119-0.019 0.181 0 0.262 0.032 0.517 0.084 0.765-2.198 0.306-5.826 1.636-9.288 3.084C35.808 33.909 32.198 34.438 29.277 34.438zM44.466 51.863c-1.104 1.857-3.721 2.537-5.592 1.425-1.934-1.146-2.574-3.657-1.43-5.592 0.992-1.669 4.174-6.142 7.226-9.894 2.189-1.981 4.143-3.952 5.139-5.41 0.041-0.028 0.079-0.05 0.118-0.076 0.235 0.166 0.487 0.31 0.759 0.417-0.74 1.751-1.345 4.9-1.809 8.177C47.343 45.475 45.359 50.357 44.466 51.863zM67.169 47.363c1.103 1.962 0.403 4.456-1.56 5.56-1.902 1.069-4.492 0.332-5.557-1.555-0.926-1.646-2.693-5.51-4.236-9.366-0.707-3.643-1.607-7.295-2.561-9.247 0.264-0.097 0.508-0.227 0.736-0.376 0.091 0.054 0.172 0.093 0.271 0.159 0.947 1.158 2.524 2.598 4.338 4.084C62.209 40.538 66.27 45.768 67.169 47.363zM55.568 30.043c0.043-0.223 0.07-0.451 0.07-0.685 0-0.042-0.01-0.082-0.013-0.123 0.324-0.131 0.702-0.27 1.121-0.415 0.922-0.229 1.978-0.559 3.103-0.954 4.336-1.204 10.33-2.42 14.756-2.42 2.25 0.023 4.062 1.875 4.037 4.126-0.021 2.227-1.854 4.038-4.082 4.038v0.648l-0.039-0.648c-1.676-0.016-5.193-0.329-8.836-0.806C61.99 31.492 57.994 30.277 55.568 30.043z" data-fill-palette-color="accent"></path></svg></g></svg></g><g><rect width="138.64889347726813" height="5.0210297972893105" y="136.64256828895418" x="247.83389178175742" fill="#13472e" data-fill-palette-color="accent"></rect><rect width="138.64889347726813" height="5.0210297972893105" y="136.64256828895418" x="9.037214740974406" fill="#13472e" data-fill-palette-color="accent"></rect><rect width="138.64889347726813" height="5.0210297972893105" y="126.60050869437556" x="247.83389178175742" fill="#13472e" data-fill-palette-color="accent"></rect><rect width="138.64889347726813" height="5.0210297972893105" y="126.60050869437556" x="9.037214740974406" fill="#13472e" data-fill-palette-color="accent"></rect></g></svg></g><defs></defs></svg><rect width="377.44557051805117" height="247.2" fill="none" stroke="none" visibility="hidden"></rect></g></svg></g></svg>